<svg width="381" height="126" viewBox="0 0 381 126" fill="none" xmlns="http://www.w3.org/2000/svg">
<path d="M6 109.941V16.8503H46.1818C53.0909 16.8503 59.1364 18.1078 64.3182 20.623C69.5 23.1381 73.5303 26.7594 76.4091 31.4866C79.2879 36.2139 80.7273 41.8806 80.7273 48.4866C80.7273 55.1533 79.2424 60.7745 76.2727 65.3503C73.3333 69.926 69.197 73.3806 63.8636 75.7139C58.5606 78.0472 52.3636 79.2139 45.2727 79.2139H21.2727V59.5775H40.1818C43.1515 59.5775 45.6818 59.2139 47.7727 58.4866C49.8939 57.7291 51.5152 56.5321 52.6364 54.8957C53.7879 53.2594 54.3636 51.123 54.3636 48.4866C54.3636 45.82 53.7879 43.6533 52.6364 41.9866C51.5152 40.2897 49.8939 39.0472 47.7727 38.2594C45.6818 37.4412 43.1515 37.0321 40.1818 37.0321H31.2727V109.941H6ZM60.5455 67.2139L83.8182 109.941H56.3636L33.6364 67.2139H60.5455ZM91.5 109.941V16.8503H158.591V37.2139H116.773V53.2139H155.136V73.5775H116.773V89.5775H158.409V109.941H91.5ZM171.125 109.941V16.8503H196.398V89.5775H234.034V109.941H171.125ZM269.523 16.8503V109.941H244.25V16.8503H269.523ZM368.409 51.7594H342.773C342.591 49.6381 342.106 47.7139 341.318 45.9866C340.561 44.2594 339.5 42.7745 338.136 41.5321C336.803 40.2594 335.182 39.2897 333.273 38.623C331.364 37.926 329.197 37.5775 326.773 37.5775C322.53 37.5775 318.939 38.6078 316 40.6684C313.091 42.7291 310.879 45.6836 309.364 49.5321C307.879 53.3806 307.136 58.0018 307.136 63.3957C307.136 69.0927 307.894 73.8654 309.409 77.7139C310.955 81.5321 313.182 84.4109 316.091 86.3503C319 88.2594 322.5 89.2139 326.591 89.2139C328.924 89.2139 331.015 88.926 332.864 88.3503C334.712 87.7442 336.318 86.8806 337.682 85.7594C339.045 84.6381 340.152 83.2897 341 81.7139C341.879 80.1078 342.47 78.3048 342.773 76.3048L368.409 76.4866C368.106 80.426 367 84.4412 365.091 88.5321C363.182 92.5927 360.47 96.3503 356.955 99.8048C353.47 103.229 349.152 105.987 344 108.078C338.848 110.168 332.864 111.214 326.045 111.214C317.5 111.214 309.833 109.381 303.045 105.714C296.288 102.047 290.939 96.6533 287 89.5321C283.091 82.4109 281.136 73.6988 281.136 63.3957C281.136 53.0321 283.136 44.3048 287.136 37.2139C291.136 30.0927 296.53 24.7139 303.318 21.0775C310.106 17.4109 317.682 15.5775 326.045 15.5775C331.924 15.5775 337.333 16.3806 342.273 17.9866C347.212 19.5927 351.545 21.9412 355.273 25.0321C359 28.0927 362 31.8654 364.273 36.3503C366.545 40.8351 367.924 45.9715 368.409 51.7594Z" fill="url(#paint0_linear_2_2)"/>
<path d="M349.546 4.04801C349.838 3.11307 351.162 3.11307 351.454 4.04801L355.67 17.5132C355.765 17.816 355.998 18.0559 356.298 18.1596L369.264 22.6388C370.162 22.9491 370.162 24.219 369.264 24.5292L356.298 29.0085C355.998 29.1121 355.765 29.352 355.67 29.6549L351.454 43.1201C351.162 44.055 349.838 44.055 349.546 43.1201L345.33 29.6549C345.235 29.352 345.002 29.1121 344.702 29.0085L331.736 24.5292C330.838 24.219 330.838 22.9491 331.736 22.6388L344.702 18.1596C345.002 18.0559 345.235 17.816 345.33 17.5132L349.546 4.04801Z" fill="#FFB800"/>
<defs>
<linearGradient id="paint0_linear_2_2" x1="-17.8923" y1="55.1079" x2="458" y2="90.5" gradientUnits="userSpaceOnUse">
<stop stop-color="#0047FF"/>
<stop offset="1"/>
</linearGradient>
</defs>
</svg>
